<?xml version="1.0" encoding="UTF-8"?>
<!DOCTYPE svg PUBLIC "-//W3C//DTD SVG 1.1//EN" "http://www.w3.org/Graphics/SVG/1.1/DTD/svg11.dtd">
<svg version="1.1" xmlns="http://www.w3.org/2000/svg" xmlns:xlink="http://www.w3.org/1999/xlink" x="0px" y="0px" viewBox="0 0 1000 1000" enable-background="new 0 0 1000 1000" xml:space="preserve">
<metadata></metadata>
<g><path d="M217.9,432.3c-6.5,7.6-14.9,11.8-23.8,15.4c-1.1,0.5-2.6,1-3.1-0.5c-4.2-11.2-14.4-11.5-23.7-12.7c-13.2-1.7-13.3-1.4-15.9,11.5c-10.1,50.7-20.2,101.4-31.5,152.4c-2.4-11.8-4.9-23.5-7.2-35.3c-8.3-41.1-16.6-82.2-24.6-123.3c-0.9-4.5-2.3-6.3-7-5.9c-6.9,0.5-13.7,0.9-20.3,3.1c-3.3,1.1-7.2,2.4-8.4,5.5c-3.1,8.1-7.7,4.8-12.4,2.4c-6.3-3.3-12.5-6.7-17.4-13.1c14.8-5.9,30-7.7,45.3-9.1c9.7-0.9,19.6-0.5,29.4-1.5c8.2-0.9,14.2,1.5,18.4,8.6c2.8,4.8,5.9,6.1,9.1,0.3c4.4-7.9,11.1-9.3,19.7-8.9c21.4,0.8,42.6,2,63.4,7.3C211.2,429.2,214.6,429.7,217.9,432.3z"/><path d="M582.7,545.9c4.5-12.7,13.2-19,25.2-19c17.4,0,34.8-0.2,52.2,0.1c5,0.1,6.1-1.4,6.1-6.2c-0.1-13,0.1-13-13.1-13c-21.3,0-42.7-0.2-64,0.2c-5.7,0.1-6.9-1.6-6.8-7c0.4-14,0.3-28,0-41.9c-0.1-4.6,0.8-6.3,5.9-6.3c29.9,0.3,59.8,0.2,89.8,0c5.6,0,5.9,1.8,3.2,5.8c-5.2,7.8-11.8,12.8-21.7,12.6c-17.4-0.2-34.8,0.2-52.2-0.2c-5.5-0.1-7.7,1.3-6.8,6.9c0.3,1.9,0.3,3.9,0,5.9c-0.7,4.6,1.3,5.8,5.7,5.7c23.8-0.2,47.6,0,71.4-0.2c4.9,0,6.8,0.9,6.7,6.3c-0.4,15-0.1,29.9-0.1,44.9c0,2.6,0.7,5.4-3.7,5.4C648.1,545.8,615.7,545.9,582.7,545.9z"/><path d="M329,508.9c0,10.3-0.3,20.6,0.1,30.9c0.2,4.8-1.1,6.3-6.1,6.2c-12.6-0.2-12.6,0.1-12.6-12.8c0-18.1-0.2-36.3,0.1-54.4c0.1-5.5-1-8-7.2-7.5c-6.3,0.6-12.7,0.1-19.1,0.1c-10.6,0-17-6.2-22-14.7c-1.8-3-1.1-4.3,2.6-4.3c36.5,0.1,73,0.1,109.6,0c3.9,0,4,1.4,2.8,4.4c-3.3,7.7-13.4,14.5-22.1,14.6c-6.4,0-12.8,0.5-19.1-0.1c-6.2-0.6-7.3,2-7.1,7.5C329.3,488.8,329,498.9,329,508.9z"/><path d="M937.6,489c15,0,29.9,0.2,44.8-0.1c5.1-0.1,6.1,1.5,6,6.2c-0.3,14.9-0.2,29.9,0,44.8c0.1,3.9-0.7,5.5-5.1,5.6c-13.1,0.2-13.1,0.4-13.1-12.9c0-6.9-0.1-13.7,0.1-20.6c0.1-3.1-0.8-4.2-4.1-4.2c-19.1,0.1-38.2,0.2-57.3,0c-3.5,0-3.9,1.6-3.9,4.4c0.1,9.3-0.2,18.6,0.1,27.9c0.1,4.2-1.2,5.3-5.3,5.4c-12.8,0.1-12.8,0.3-12.8-12.4c0-12.7,0.2-25.5-0.1-38.2c-0.1-4.6,1-6.3,6-6.1c14.9,0.4,29.9,0.1,44.8,0.1C937.6,488.9,937.6,489,937.6,489z"/><path d="M735.7,498.7c0-13.3,0.2-26.5-0.1-39.8c-0.1-4.8,1.2-6.2,6-6.1c12.2,0.2,12.1-0.1,12.1,12.4c-0.1,18.7,0.1,37.3-0.2,56c-0.1,4.5,1.2,5.8,5.7,5.8c22.8-0.2,45.7,0.1,68.5-0.2c6.4-0.1,6.5,2.1,3.7,6.6c-4.5,7.3-10.1,12-19.5,11.8c-23.6-0.5-47.1-0.4-70.7-0.2c-4.6,0-5.8-1.2-5.7-5.7C735.9,525.7,735.7,512.2,735.7,498.7z"/><path d="M10,415.2c27.6-8.8,54.3-12.1,81.3-13c39-1.3,78.1-1.4,116.5,6.9c5.3,1.1,10.6,2.3,15.7,4c1.9,0.6,6.9-0.4,4.8,3.8c-1.3,2.8-2.4,7.8-8.4,5.8c-11.7-3.8-23.7-6.4-35.9-7.9c-54.7-6.6-109.2-7.1-162.8,7.8C14,424.7,14.5,418.1,10,415.2z"/><path d="M476.8,489.1c15.9,0,31.8,0.2,47.7-0.1c6.4-0.1,5.9,2.3,3.3,6.2c-5.4,7.8-12.2,13-22.4,12.8c-19.6-0.3-39.2-0.1-58.8-0.1c-10.5,0-17.1-6-22.1-14.5c-2.3-3.9-0.4-4.4,3.1-4.4C444,489.1,460.4,489.1,476.8,489.1z"/><path d="M423.7,527.6c1.7-1.3,3.7-0.6,5.6-0.6c31.4,0,62.8-0.1,94.3,0c2,0,4.8-1.4,5.9,1.1c0.9,2.1-1,4.2-2.3,5.9c-5.6,7.3-12.4,12-22.3,11.8c-19.4-0.4-38.8-0.1-58.2-0.1C436.1,545.6,426.7,538.1,423.7,527.6z"/><path d="M423.6,453.4c1.5-0.1,2.9-0.3,4.2-0.3c32.1,0,64.2,0,96.3,0c1.8,0,4.2-1.2,5.2,1.1c0.9,2-0.8,3.8-1.9,5.3c-5.4,7.4-12,12.5-22,12.3c-19.6-0.3-39.2,0-58.8-0.1C436.1,471.7,426.9,464.4,423.6,453.4z"/><path d="M990,453.8c-3.6,10.9-12.2,17.5-23.2,17.5c-19.8,0-39.7-0.1-59.5,0c-10.2,0-16.8-5.5-22.1-13.4c-1.7-2.6-2.6-5,2.3-4.9c33.8,0.1,67.6,0.1,101.3,0.2C989.2,453.1,989.6,453.5,990,453.8z"/></g>
</svg>
